<mxfile host="app.diagrams.net" modified="2023-10-02T17:36:19.658Z" agent="Mozilla/5.0 (Windows NT 10.0; Win64; x64) AppleWebKit/537.36 (KHTML, like Gecko) Chrome/116.0.0.0 Safari/537.36 OPR/102.0.0.0" version="22.0.1" etag="_f5bPFPknCc25NrJPqgO" type="github">
  <diagram name="Strona-1" id="drMQQKfx9pJVuxi3xzcW">
    <mxGraphModel>
      <root>
        <mxCell id="0" />
        <mxCell id="1" parent="0" />
      </root>
    </mxGraphModel>
  </diagram>
</mxfile>
